
<svg xmlns="http://www.w3.org/2000/svg" viewBox="0 0 38.67 43.3">
  <path fill="#283593" d="M19.33 0C17.5.01 15.68.25 14 .79 7.85 2.6 3.34 7.59 3.34 13.55v16.21c0 5.96 4.5 10.94 10.66 12.75 6.16 1.82 13.16 0 17.33-4.5 3.28-3.55 4.43-8.41 4.08-13.18-2.41-.71-4.34-1.46-4.34-1.46v15.4c0 1.61-1.56 3.21-3.08 3.52-1.66.33-3.34.33-4.92-.17-1.49-.47-2.5-1.74-2.5-3.27v-15.4c0-1.53 1.23-3.21 2.5-3.52 1.66-.33 3.26-.33 4.84.25 1.56.57 3.16 1.7 4.84 2.78.08-3.3-.42-6.61-2.08-9.47-2.42-4.17-6.67-6.45-11.08-6.81-.5-.04-1-.06-1.5-.05-.5 0-1-.01-1.5.06-4.42.36-8.67 2.64-11.09 6.8A16.65 16.65 0 0 0 5 20.15c2.25-1.08 3.75-1.7 3.75-1.7-1.75-2-1.83-5.23-.08-7.3 1.74-2.05 4.83-2.54 7-1.08 2.16 1.45 2.5 4.25 1.83 6.55A1580.04 1580.04 0 0 0 21.33 18v.13a111.8 111.8 0 0 1 3.83-1.5c.67-2.3 1-5.1 3.17-6.55 2.17-1.46 5.25-.97 7 1.08 1.75 2.07 1.67 5.3-.08 7.3 0 0 1.5.62 3.75 1.7a16.65 16.65 0 0 0-.5-6.61c-2.42-4.17-6.67-6.45-11.09-6.8-.5-.08-1-.07-1.5-.06-.5 0-1 .01-1.5.05-1.14.1-2.25.35-3.33.7C19.92.04 19.62 0 19.33 0z"/>
</svg>
